<svg width="157" height="156" fill="none" xmlns="http://www.w3.org/2000/svg">
  <g filter="url(#a)">
    <path d="M77.827 16c33.736 0 60.675 26.977 60.675 60 0 33.022-26.989 60-60.675 60-33.686 0-59.325-26.978-59.325-60 0-33.023 26.989-60 59.325-60Z" fill="#F6B213"/>
    <g clip-path="url(#b)" fill="#fff">
      <path d="M99.252 73.839a2.545 2.545 0 0 0 .275-2.358 6.042 6.042 0 0 0-5.6-3.84h-3.478v-3.113a3.012 3.012 0 0 0 2.008-2.836v-1.47a1.54 1.54 0 0 0-1.537-1.538h-2.94c-.848 0-1.538.69-1.538 1.538v1.47c0 1.308.84 2.423 2.008 2.836v3.113h-6.325v-7.197c.121-1.405-1.188-2.823-2.207-3.756V52.96a1 1 0 1 0-1.999 0v3.728c-1.017.975-2.244 2.139-2.207 3.756v7.197h-6.325v-3.113a3.012 3.012 0 0 0 2.008-2.836v-1.47a1.54 1.54 0 0 0-1.537-1.538h-2.94a1.54 1.54 0 0 0-1.538 1.538v1.47c0 1.308.84 2.423 2.008 2.836v3.113h-3.423a6.042 6.042 0 0 0-5.6 3.84c-.632 1.488.57 3.486 2.374 3.464h12.806v2.29c0 1.62 1.319 2.94 2.94 2.94h1.461v13.39l-4.687 3.773c-1.062.712-.618 2.691.877 2.701l9.621-.005c1.307.032 2.064-1.796.874-2.702l-4.686-3.753V80.174h1.462c1.621 0 2.94-1.318 2.94-2.939v-3.29a1 1 0 0 0-1-1H60.739c-.244-.054-.58-.082-.51-.743a4.03 4.03 0 0 1 3.737-2.562h29.96a4.03 4.03 0 0 1 3.736 2.562c.038.247.132.57-.51.743H82.125a1 1 0 1 0 0 2h15.027c.84 0 1.625-.414 2.1-1.106Zm-10.81-13.155h2.016v1.008a1.01 1.01 0 0 1-2.016 0v-1.008Zm-21.063 0h2.017v1.008a1.01 1.01 0 0 1-2.017 0v-1.008Zm8.198 37.355 3.362-2.706 3.373 2.702-6.735.004Zm6.77-23.094v2.29c0 .519-.421.94-.94.94h-4.923a.941.941 0 0 1-.94-.94v-2.29h6.803Zm-4.636-7.304v-7.197c.762-2.85 2.06-1.761 2.415 0v7.197h-2.415Z"/>
      <path d="M61.146 87.274a3.537 3.537 0 0 0-.154-.349c1.96.263 3.848-1.026 3.867-3.073a3.077 3.077 0 0 0-3.073-3.073h-10.64V70.193a1 1 0 0 0-1.999 0v10.722c0 1.027.836 1.863 1.864 1.863h10.775a1.075 1.075 0 0 1 0 2.148H51.01A4.016 4.016 0 0 1 47 80.915V63.433c0-.592.481-1.074 1.073-1.074s1.074.482 1.074 1.074V71.5a1 1 0 0 0 2 0v-8.067a3.077 3.077 0 0 0-3.074-3.073A3.077 3.077 0 0 0 45 63.433v17.482c0 3.14 2.42 5.722 5.492 5.986-.08.158-.15.322-.206.493l-3.75 11.331a1 1 0 0 0 1.899.628l3.749-11.33a1.597 1.597 0 0 1 1.519-1.098h4.069c.665 0 1.268.42 1.5 1.044l4.232 11.418c.227.358.56.815 1.284.59a1 1 0 0 0 .59-1.285l-4.232-11.418ZM112.999 80.915V63.433a3.076 3.076 0 0 0-3.073-3.073 3.077 3.077 0 0 0-3.073 3.073V80.78h-10.64a3.077 3.077 0 0 0-3.073 3.073c-.023 2.026 1.93 3.33 3.867 3.073-.056.114-.11.23-.154.35l-4.232 11.417a1 1 0 0 0 .59 1.285c.382.13.991.035 1.285-.59l4.232-11.418a1.607 1.607 0 0 1 1.5-1.044h4.069c.691 0 1.301.442 1.518 1.098l3.75 11.33a.999.999 0 1 0 1.898-.628l-3.749-11.33a3.71 3.71 0 0 0-.206-.493c2.904-.185 5.555-2.902 5.491-5.987Zm-1.999 0c.043 2.022-1.78 4.05-4.011 4.011H96.213c-1.326-.036-1.433-2.036 0-2.148h10.776a1.865 1.865 0 0 0 1.863-1.863V63.433a1.075 1.075 0 0 1 2.148 0v17.482Z"/>
    </g>
  </g>
  <defs>
    <clipPath id="b">
      <path fill="#fff" transform="translate(45 42)" d="M0 0h68v68H0z"/>
    </clipPath>
    <filter id="a" x=".854" y=".706" width="155.295" height="155.295" filterUnits="userSpaceOnUse" color-interpolation-filters="sRGB">
      <feFlood flood-opacity="0" result="BackgroundImageFix"/>
      <feColorMatrix in="SourceAlpha" values="0 0 0 0 0 0 0 0 0 0 0 0 0 0 0 0 0 0 127 0" result="hardAlpha"/>
      <feOffset dy="2.353"/>
      <feGaussianBlur stdDeviation="8.824"/>
      <feComposite in2="hardAlpha" operator="out"/>
      <feColorMatrix values="0 0 0 0 0 0 0 0 0 0 0 0 0 0 0 0 0 0 0.1 0"/>
      <feBlend in2="BackgroundImageFix" result="effect1_dropShadow_1_115"/>
      <feBlend in="SourceGraphic" in2="effect1_dropShadow_1_115" result="shape"/>
    </filter>
  </defs>
</svg>
