<svg width="32" height="48" fill="none" xmlns="http://www.w3.org/2000/svg">
  <path d="M6.92 16.954c3.936 0 7.078 3.149 7.078 7.002 0 3.854-3.148 7.003-7.078 7.003S0 27.81 0 23.956c0-3.853 3.148-7.002 6.92-7.002ZM6.92 0c3.936 0 7.078 3.148 7.078 7.002 0 3.854-3.148 7.002-7.078 7.002S0 10.856 0 7.002C0 3.148 3.148 0 6.92 0ZM24.714 33.996c3.93 0 7.078 3.148 7.078 7.002 0 3.854-3.148 7.002-7.078 7.002s-6.92-3.148-6.92-7.002c0-3.854 3.148-7.002 6.92-7.002ZM24.714 17.041c3.93 0 7.078 3.149 7.078 7.003 0 3.853-3.148 7.002-7.078 7.002s-6.92-3.149-6.92-7.002c0-3.854 3.148-7.003 6.92-7.003Z" fill="#F6B213"/>
</svg>
